<svg viewBox="0 0 665.13 134.28" xmlns="http://www.w3.org/2000/svg"><g fill="#fff"><path d="M57.87 39.11a38.59 38.59 0 0 1-11.51 27.6 39 39 0 0 1-27.71 11.4H0v-58h9.59v48.42h9.06a29.47 29.47 0 0 0 0-58.94H0V0h18.65a39 39 0 0 1 27.71 11.4 38.84 38.84 0 0 1 11.51 27.71zM84.41 78.12h-9.59V0h9.59zM114 25.58a28.89 28.89 0 0 0-3.31 13.54 29.48 29.48 0 0 0 29.42 29.42h14.07V43.93h-21.71v-9.59h31.23v43.8h-23.55a39.06 39.06 0 0 1-33.6-59 40.93 40.93 0 0 1 6-7.68A39 39 0 0 1 140.15 0h23.77v9.61h-23.77a30.71 30.71 0 0 0-8.31 1.17A29.77 29.77 0 0 0 114 25.58zM196.14 78.12h-9.59V0h9.59zM265.56 9.59h-51.9V0h51.9zm-20.89 68.53h-9.59V19.18h9.59zM401.47 68.53v9.59h-51.9V0h9.59v68.53zM424.7 9.59v24.73h21.42v9.61H424.7v24.6H467v9.59h-51.9V0H467v9.59zM539.81 0v78.12l-9.59-10.55-48-53.18V0l48 53.29V0zm-57.55 28.67l9.59 10.66v38.79h-9.59zM605.25 9.59h-51.9V0h51.9zm-20.89 68.53h-9.59V19.18h9.59zM638.71 9.59a12.19 12.19 0 0 0-12.26 12.12v.35a12.26 12.26 0 0 0 12.26 12.26h4.69a22.61 22.61 0 0 1 13.6 4.79 21.67 21.67 0 0 1 8.1 17v.21a21.78 21.78 0 0 1-21.71 21.85h-26.52v-9.64h26.53a12.19 12.19 0 0 0 12.26-12.12v-.35A12.26 12.26 0 0 0 643.4 43.8h-5.12c-12-.43-21.42-9.81-21.42-21.74v-.21A21.87 21.87 0 0 1 638.7 0h26.43v9.59zM327.5 78.12h10.55l-25.69-55.31-5.22 11.29 7.12 15.41h-24.92l12.47-26.81 5.33-11.3L301.81 0l-5.22 11.4-31.12 66.72h10.55l8.85-19.02h33.83zM262.17 133.93v-10.3h-10.32v10.3h-4v-24.1h4v10.32h10.32v-10.3h4v24.08zM279.61 113.23v6.94H289v3.38h-9.42v7h10.72v3.38h-14.56v-24.1h14.06v3.38zM313 130.61v3.32h-14.19v-24.1h3.94v20.76zM335.06 112.75l-2.43 2.43a7.57 7.57 0 0 0-5.26-2.23c-2.6 0-4.32 1.48-4.32 3.09s1.49 2.39 3.67 3.09l3.83 1.25c2.87 1 5.62 3.13 5.62 6.8 0 4-4.17 7.1-9 7.1-3.81 0-7.49-1.67-9.37-4.34l2.43-2.43a8.78 8.78 0 0 0 7 3.32c3 0 5.08-1.58 5.08-3.48s-1.63-3.16-4-3.92l-3.92-1.25c-2.67-.86-5.17-2.79-5.17-6.06 0-3.8 3.45-6.61 8-6.61a10.65 10.65 0 0 1 7.84 3.24zM343.79 133.93v-24.1h3.94v24.1zM372.57 133.93L361 115.35v18.58h-3.71v-24.1h4.78l11.55 18.83v-18.81h3.74v24.08zM390.94 123v11H387v-24.1h3.94v9.83l9.86-9.83h4.61l-11.21 11.17 12.86 12.86h-5.13zM413.31 133.93v-24.1h3.94v24.1z"/></g></svg>