<?xml version="1.0" encoding="UTF-8" standalone="no"?>
<svg
   xmlns:dc="http://purl.org/dc/elements/1.1/"
   xmlns:cc="http://creativecommons.org/ns#"
   xmlns:rdf="http://www.w3.org/1999/02/22-rdf-syntax-ns#"
   xmlns:svg="http://www.w3.org/2000/svg"
   xmlns="http://www.w3.org/2000/svg"
   xmlns:sodipodi="http://sodipodi.sourceforge.net/DTD/sodipodi-0.dtd"
   xmlns:inkscape="http://www.inkscape.org/namespaces/inkscape"
   viewBox="0 0 698.64 140.65"
   version="1.1"
   id="svg249"
   sodipodi:docname="DT_logo.svg"
   width="698.64001"
   height="140.64999"
   inkscape:version="0.92.3 (2405546, 2018-03-11)">
  <metadata
     id="metadata253">
    <rdf:RDF>
      <cc:Work
         rdf:about="">
        <dc:format>image/svg+xml</dc:format>
        <dc:type
           rdf:resource="http://purl.org/dc/dcmitype/StillImage" />
        <dc:title></dc:title>
      </cc:Work>
    </rdf:RDF>
  </metadata>
  <sodipodi:namedview
     pagecolor="#ffffff"
     bordercolor="#666666"
     borderopacity="1"
     objecttolerance="10"
     gridtolerance="10"
     guidetolerance="10"
     inkscape:pageopacity="0"
     inkscape:pageshadow="2"
     inkscape:window-width="1920"
     inkscape:window-height="1043"
     id="namedview251"
     showgrid="false"
     inkscape:pagecheckerboard="true"
     inkscape:zoom="1.1107294"
     inkscape:cx="178.26124"
     inkscape:cy="71.324997"
     inkscape:window-x="1920"
     inkscape:window-y="36"
     inkscape:window-maximized="1"
     inkscape:current-layer="svg249" />
  <defs
     id="defs239">
    <style
       id="style237">.cls-1{fill:#231f20}</style>
  </defs>
  <path
     class="cls-1"
     d="m 211.93,56.539996 a 31,31 0 0 1 -9.23,22.12 31.28,31.28 0 0 1 -22.21,9.14 h -14.95 v -46.46 h 7.69 v 38.78 h 7.26 a 23.62,23.62 0 1 0 0,-47.24 h -14.95 v -7.69 h 14.95 a 31.35,31.35 0 0 1 31.44,31.35 z m 21.27,31.26 h -7.69 v -62.61 h 7.69 z m 23.74,-42.11 a 23.11,23.11 0 0 0 -2.65,10.85 23.63,23.63 0 0 0 23.58,23.58 h 11.28 v -19.74 h -17.43 v -7.68 h 25 v 35.1 h -18.85 a 31.23,31.23 0 0 1 -22.12,-9.14 31.52,31.52 0 0 1 -4.75,-38.18 33.12,33.12 0 0 1 4.78,-6.15 31.23,31.23 0 0 1 22.12,-9.14 h 19 v 7.69 h -19 a 24.68,24.68 0 0 0 -6.66,0.94 23.82,23.82 0 0 0 -14.3,11.87 z m 65.8,42.11 h -7.69 v -62.61 h 7.69 z m 55.64,-54.92 h -41.6 v -7.69 h 41.6 z m -16.74,54.92 H 354 v -47.23 h 7.69 z m 125.67,-7.68 v 7.68 h -41.6 v -62.61 h 7.69 v 54.93 z m 18.62,-47.24 v 19.82 h 17.17 v 7.69 h -17.17 v 19.73 h 33.91 v 7.68 h -41.6 v -62.61 h 41.6 v 7.69 z m 92.26,-7.69 v 62.61 l -7.69,-8.46 -38.44,-42.62 v -11.53 l 38.44,42.71 v -42.71 z m -46.13,23 7.69,8.54 v 31.07 h -7.69 z m 98.57,-15.31 H 609 v -7.69 h 41.6 z m -16.74,54.92 h -7.69 v -47.23 h 7.69 z m 43.56,-54.92 a 9.77,9.77 0 0 0 -9.82,9.82 v 0.17 a 9.83,9.83 0 0 0 9.82,9.83 h 3.76 a 18.07,18.07 0 0 1 10.94,3.84 17.35,17.35 0 0 1 6.49,13.58 v 0.17 a 17.46,17.46 0 0 1 -17.43,17.51 h -21.26 v -7.68 h 21.27 a 9.77,9.77 0 0 0 9.78,-9.83 v -0.17 a 9.83,9.83 0 0 0 -9.82,-9.82 h -4.1 a 17.44,17.44 0 0 1 -17.17,-17.43 v -0.17 a 17.53,17.53 0 0 1 17.51,-17.51 h 21.19 v 7.69 z m -249.42,54.92 h 8.45 l -20.58,-44.33 -4.19,9.05 5.71,12.35 h -19.98 l 10,-21.49 4.27,-9.05 -4.27,-9.14 -4.19,9.14 -24.94,53.47 h 8.46 l 7.09,-15.24 h 27.12 z"
     id="path241"
     inkscape:connector-curvature="0"
     style="fill:#ffffff;fill-opacity:1" />
  <path
     class="cls-1"
     d="M 45.242057,108.7361 90.136267,63.841882 100.39639,74.102001 55.502177,118.99621 Z"
     id="path243"
     inkscape:connector-curvature="0"
     style="fill:#ffffff;fill-opacity:1" />
  <path
     class="cls-1"
     d="m 87.4,40.569996 v -0.12 l 42.42,42.42 10.26,-10.26 -61.47,-61.48 -13.12,-13.1299999 -10.26,10.26 13.13,13.1299999 c 0.45,0.45 0.86,0.92 1.26,1.4 5.09,6.18 5.6,14.6 2.75,23.27 -1.75,5.29 -5.37,10.08 -9.83,14.57 -6.85,6.85 -15.15,10.78 -22.83,11.37 -6.2,0.45 -12,-1.28 -16.32,-5.61 l -2.87,-2.87 34.64,-34.67 -10.26,-10.26 -44.9,44.9 10.26,10.26 2.87,2.87 c 7.08,7.08 17.1,10 28.29,8.95 12.21,-1.1 22,-6.79 30.62,-15.43 a 56.75,56.75 0 0 0 10.33,-14.08 49.22,49.22 0 0 0 5.03,-15.49 z M 345.5,140.23 V 127.1 h -13.13 v 13.13 h -5 v -30.67 h 5 v 13.13 h 13.13 v -13.13 h 5 v 30.67 z m 22.2,-26.38 v 8.84 h 12 V 127 h -12 v 9 h 13.6 v 4.27 h -18.52 v -30.71 h 17.9 v 4.29 z M 410.12,136 v 4.25 h -18 v -30.69 h 5 V 136 Z m 28.14,-22.75 -3.09,3.09 a 9.62,9.62 0 0 0 -6.69,-2.84 c -3.31,0 -5.5,1.88 -5.5,3.94 0,2.06 1.9,3 4.68,3.94 l 4.88,1.59 c 3.65,1.21 7.16,4 7.16,8.66 0,5.1 -5.3,9 -11.39,9 -4.85,0 -9.53,-2.13 -11.92,-5.53 l 3.09,-3.09 a 11.14,11.14 0 0 0 8.93,4.23 c 3.76,0 6.46,-2 6.46,-4.43 0,-2.57 -2.08,-4 -5.1,-5 l -5,-1.59 c -3.4,-1.1 -6.58,-3.56 -6.58,-7.72 0,-4.83 4.38,-8.41 10.22,-8.41 a 13.57,13.57 0 0 1 9.85,4.16 z m 11.11,26.98 v -30.67 h 5 v 30.67 z m 36.63,0 -14.67,-23.67 v 23.67 h -4.73 v -30.67 h 6.08 l 14.7,24 v -24 h 4.76 v 30.67 z m 23.37,-13.96 v 14 h -5 v -30.71 h 5 v 12.5 l 12.55,-12.5 h 5.86 l -14.27,14.27 16.37,16.4 h -6.53 z m 28.47,13.96 v -30.67 h 5 v 30.67 z"
     id="path245"
     inkscape:connector-curvature="0"
     style="fill:#ffffff;fill-opacity:1" />
</svg>
