<?xml version="1.0" encoding="utf-8"?>
<!-- Generator: Adobe Illustrator 23.0.1, SVG Export Plug-In . SVG Version: 6.00 Build 0)  -->
<svg version="1.1" id="Layer_1" xmlns="http://www.w3.org/2000/svg" xmlns:xlink="http://www.w3.org/1999/xlink" x="0px" y="0px"
	 viewBox="0 0 476.94 830.9" style="enable-background:new 0 0 476.94 830.9;" xml:space="preserve">
<style type="text/css">
	.st0{fill:#FFFFFF;}
</style>
<g>
	<g>
		<path class="st0" d="M1,691.91c0-2,0-4,0-6c2.6-1.26,4.54-0.43,6.39,1.64c1.46,1.63,3.32,2.89,5.22,4.51
			c14.08-31.88,27.9-63.16,41.71-94.45c0.59,0.22,1.17,0.43,1.76,0.65c-0.92,3.28-1.84,6.57-2.9,10.34
			c3.88-1.25,7.03-2.26,10.2-3.28c16.41,38.32,32.77,76.54,49.42,115.43c9.59-11.73,18.22-22.96,27.6-33.51
			c5.42-6.09,8.39-12.32,7.71-20.58c-0.28-3.42-0.75-5.99-3.77-7.92c-7.92-5.06-13.59-11.92-16.99-20.81
			c-0.85-2.23-3.12-4.29-5.24-5.61c-12.3-7.63-24.85-14.85-37.1-22.56c-5.38-3.38-10.67-5.95-17.18-4.53
			c-0.13,0.03-0.36-0.43-0.98-1.18c10.74-3.68,21.26-7.28,32-10.95c-12.25-4-24.5-8-37.26-12.17
			c14.42-32.67,28.62-64.88,42.83-97.08c0.39,0.16,0.78,0.33,1.17,0.49c-2.04,7.89-4.09,15.78-6.13,23.67
			c0.48,0.15,0.97,0.3,1.45,0.45c2.26-3.84,4.81-7.54,6.7-11.56c2.86-6.05,7.93-1.07,12.01-2.63c-3.1-6.47-6.1-12.72-9.09-18.97
			c-1.18,0.57-2.07,1.01-3.76,1.83c0-2.98-0.36-5.31,0.06-7.49c3.62-18.84,3.85-37.67-0.22-56.43c-0.81-3.74-0.34-6.38,2.84-8.61
			c8.83-6.19,13.78-14.58,13.69-25.53c-0.02-2.07-0.35-4.59-1.54-6.13c-4.76-6.14-9.92-11.97-15.11-18.14
			c6.96-6.47,13.59-12.52,20.06-18.74c1.36-1.31,2.83-3.12,3.08-4.87c1.04-7.22,2.03-14.49,2.31-21.78
			c0.4-10.32,0.04-20.66,0.25-30.99c0.06-2.74,0.67-5.6,1.66-8.16c8.75-22.61,18.79-44.81,26.09-67.87
			c4.68-14.79,7.64-30.42,4.35-46.65c-6.07-29.95-10.99-60.13-16.61-90.17c-0.43-2.3-2.2-4.84-4.09-6.3
			c-15.32-11.76-30.86-23.23-46.26-34.89C87.17,16.69,77.11,8.81,66.99,1c8,0,16,0,24,0c17.44,15.34,34.88,30.68,52.31,46.02
			c0.3-0.2,0.59-0.39,0.89-0.59c-2.74-15.14-5.47-30.28-8.21-45.43c3.33,0,6.67,0,10,0c8.46,41.34,16.91,82.68,25.68,125.52
			c0.71-2.34,1.09-3.21,1.24-4.12c1.34-8.37,2.5-16.77,4.04-25.09c0.39-2.08,1.57-4.36,3.09-5.82c9.5-9.09,19.13-18.05,28.88-26.88
			c2.34-2.12,2.69-3.75,1.34-6.73c-8.57-18.89-16.87-37.9-25.26-56.88c97.65,0,195.31,0,292.96,0c0,276.97,0,553.93,0,830.9
			c-158.98,0-317.96,0-476.94,0c0-33.33,0-66.66,0-99.99c1.61,0.83,3.27,1.58,4.83,2.5c16.32,9.59,32.52,19.4,48.99,28.74
			c7.77,4.4,16.04,7.92,24.08,11.83c0.18-0.31,0.36-0.63,0.54-0.94C53.29,746.66,27.15,719.29,1,691.91z M380.83,393.39
			c-7.39-2.15-14.18-3.84-20.73-6.19c-2.31-0.83-4.94-2.87-5.91-5.03c-33.18-74.37-66.17-148.82-99.2-223.26
			c-6.19-13.94-12.39-27.88-18.73-42.13c-18.78,7.26-37.2,14.33-55.56,21.57c-1.14,0.45-2.19,2.06-2.58,3.34
			c-5.72,18.77-11.38,37.54-8.15,57.63c0.41,2.58-0.4,5.66-1.51,8.12c-9.23,20.63-18.68,41.16-27.98,61.77
			c-0.93,2.07-1.64,4.39-1.79,6.64c-1.32,19.27-2.4,38.56-3.83,57.82c-0.18,2.36-1.53,5.02-3.15,6.81
			c-5.02,5.52-10.44,10.67-15.85,16.11c3.32,4.16,6.55,8.17,9.73,12.22c0.81,1.03,1.98,2.1,2.16,3.28
			c1.7,10.9,3.67,21.92-7.03,29.97c-1.58,1.19-2.71,2.97-4.26,4.21c-3.08,2.45-3.66,5.29-3.09,9.2c2.04,13.96,4.38,27.96,0.6,42.06
			c-0.66,2.47-1.11,5.44-0.36,7.76c5.81,18.08,11.85,36.11,28.41,47.84c1.07,0.76,1.77,2.03,2.83,2.81c2.53,1.86,2.56,4.14,2.06,7
			c-1.24,7.01-1.96,14.11-3.17,21.13c-0.75,4.32-1.43,8.83-3.24,12.74c-1.36,2.94-1.53,4.9,0,7.72
			c12.56,23.08,24.95,46.25,37.41,69.39c0.68,1.27,1.48,2.48,2.4,4.01c4.17-5.14,7.86-10.09,12.04-14.59
			c1.26-1.36,3.95-2.16,5.86-1.98c3.53,0.34,6.98,1.59,10.7,2.53c0-2.11,0.16-3.77-0.03-5.38c-1.46-12.39-3.08-24.77-4.41-37.18
			c-0.2-1.85,0.31-4.4,1.5-5.68c9.16-9.84,18.58-19.45,27.91-29.14c1.03-1.07,2.04-2.17,3.02-3.3c0.82-0.95,1.56-1.96,3.03-3.81
			c-2.19,12.64-6.53,22.75-16.04,30.22c1.64,0.25,2.8,0.22,3.9-0.04c13.73-3.29,27.47-6.58,41.18-9.95
			c4.49-1.1,10.67-1.14,12.89-4.07c2.2-2.91,0.4-8.85,0.32-13.47c-0.07-4.17-0.22-8.33-0.28-12.49c-0.05-3.4-0.01-6.81-0.01-10.45
			c28.04,0.64,55.51,1.27,82.98,1.9c-1.51-1.71-3.13-2.44-4.78-3.1c-14.97-5.98-29.89-12.07-44.94-17.83
			c-3.27-1.25-4.27-2.72-3.83-6.19c0.64-5.12,0.6-10.32,0.91-16.83c-18.58,19.38-36,37.55-53.42,55.72
			c-0.43-0.21-0.86-0.42-1.29-0.62c0.41-3.84-0.03-8.07,1.48-11.42c1.55-3.45,4.91-6.12,7.63-8.99
			c8.35-8.78,16.76-17.51,25.19-26.21c22.56-23.26,45.16-46.47,67.7-69.74C366.57,408.59,373.44,401.19,380.83,393.39z
			 M452.62,267.71c-4.1-3.6-7.33-7.39-11.36-9.83c-34.19-20.62-68.5-41.04-102.89-61.32c-1.95-1.15-5.14-1.43-7.33-0.75
			c-13.01,4.01-25.9,8.4-38.82,12.7c-1.2,0.4-2.33,0.98-3.86,1.64c19.69,47.79,39.23,95.21,58.97,143.11
			C382.39,324.77,417.13,296.54,452.62,267.71z M412.23,229.06c-0.17,0.09-0.35,0.17-0.52,0.26
			C346.02,163.63,280.33,97.94,215.44,33.06c-0.2-0.49,0.09,0.26,0.4,1c12.97,31.49,25.9,63,39.04,94.41c0.99,2.37,3.23,4.61,5.45,6
			c49.2,30.82,98.49,61.52,147.76,92.23C409.44,227.54,410.85,228.28,412.23,229.06z M459.41,275.11
			c-29.16,27.12-58.18,54.1-87.19,81.08c-1.22,1.13-2.27,2.61-3.7,3.31c-4.13,2.02-8.45,3.64-12.61,5.62
			c-0.56,0.27-0.6,1.65-1.11,3.23c4.31-1.35,7.8-2.17,11.07-3.51c22.57-9.28,45.12-18.63,67.62-28.1c2.37-1,4.69-2.57,6.49-4.4
			c11.44-11.57,22.74-23.28,34.03-34.99c1.29-1.34,2.19-3.04,3.16-4.41C471.03,286.79,465.4,281.13,459.41,275.11z M243.03,681.63
			c-1.4,0.94-1.99,1.25-2.47,1.67c-15.99,14.31-32.02,28.58-47.83,43.09c-1.28,1.17-1.73,4.19-1.33,6.09
			c2.38,11.53,5.09,23,7.73,34.48c2.98,12.97,6.01,25.93,9.02,38.9C219.86,764.63,237.19,725.18,243.03,681.63z M186.41,647.72
			c-0.29-0.15-0.57-0.31-0.86-0.46c-22.05,24.23-44.14,48.43-66.06,72.78c-1.03,1.15-1.28,3.96-0.65,5.49
			c3.94,9.68,8.22,19.23,12.42,28.81c2.62,5.97,5.29,11.92,8.3,18.7C155.41,730.64,170.91,689.18,186.41,647.72z M71.06,672.16
			c-17.87,9.16-35.28,17.03-52.14,26.24c12.78,13.04,24.64,25.15,36.55,37.22c0.61,0.62,1.73,1.3,2.45,1.15
			c9.05-1.84,18.07-3.82,27.48-5.85C80.58,711.16,75.91,692.03,71.06,672.16z M265.59,727.18c-0.37,0.07-0.73,0.15-1.1,0.22
			c-7.37,27.61-14.73,55.22-22.33,83.69c17.99-7.4,34.95-14.37,52.13-21.43C284.55,768.46,275.07,747.82,265.59,727.18z
			 M382.49,507.7c0.67-2.72,1.14-4.14,1.36-5.59c2.64-16.91,5.25-33.83,7.86-50.75c2.36-15.28,4.8-30.54,6.96-45.84
			c0.24-1.67-0.64-4.63-1.82-5.16c-4.31-1.95-8.98-3.13-13.68-4.65c-4.67,7.56-9.29,14.66-13.45,22.03
			c-1.18,2.09-1.74,5.07-1.35,7.43C372.86,452.22,377.58,479.22,382.49,507.7z M257.01,147.55c-0.24,0.25-0.49,0.51-0.73,0.76
			c6.49,14.2,12.91,28.43,19.59,42.53c0.61,1.3,2.92,2.59,4.4,2.55c10.81-0.32,21.62-0.95,32.43-1.54
			c7.91-0.43,15.81-0.96,23.71-1.44c0.07-0.35,0.13-0.7,0.2-1.05C310.08,175.43,283.55,161.49,257.01,147.55z M107.47,590.3
			c0.81-28.39,1.59-56.09,2.38-83.8c-0.3-0.06-0.61-0.12-0.91-0.17c-11.25,24.28-22.5,48.57-33.86,73.1
			C86.07,583.12,96.39,586.58,107.47,590.3z M410.96,425.25c12.12,23.61,24.12,46.98,36.11,70.35c-2.28-21.24-5.23-42.13-8.81-62.92
			c-1.67-9.69-2.4-18.94,2.32-28.02c1.3-2.5,1.74-5.45,2.58-8.19c-0.43-0.27-0.86-0.54-1.29-0.81
			C431.62,405.47,421.37,415.29,410.96,425.25z M357.97,377.71c-0.11,0.55-0.23,1.09-0.34,1.64c1.45,0.78,2.81,1.94,4.35,2.29
			c12.27,2.82,24.55,5.63,36.9,8.06c2.02,0.4,4.94-0.46,6.54-1.81c8.13-6.85,15.96-14.05,23.89-21.14c1.92-1.72,3.79-3.5,6.64-6.13
			c-12.13-0.52-22.88-0.98-33.64-1.41c-0.64-0.03-1.33,0.15-1.93,0.4C386.25,365.63,372.11,371.67,357.97,377.71z M352.21,671.55
			c-0.28-0.28-0.57-0.56-0.85-0.84c-1.04,0.75-2.11,1.45-3.11,2.25c-15.3,12.33-30.36,24.99-46.01,36.86
			c-5.77,4.37-7.98,8.53-6.42,15.74c2.01,9.29,2.81,18.84,4.32,29.53C317.97,726.48,335.09,699.02,352.21,671.55z M120.37,587.51
			c4.19-8.46,8.27-16.21,11.87-24.17c1.46-3.22,2.24-6.86,2.71-10.39c1.15-8.71,1.43-17.57,3.08-26.17
			c0.94-4.87,0.67-8.26-3.73-10.86c-1.27-0.75-2.36-1.84-3.49-2.82c-5.78-5.01-11.55-10.03-17.27-15
			C115.77,527.14,118.04,556.97,120.37,587.51z M61.4,739.18c-0.17,0.39-0.35,0.78-0.52,1.16c17.4,11.89,34.81,23.78,53.02,36.23
			c-1.54-15.93-2.97-30.8-4.46-46.24C92.94,733.36,77.17,736.27,61.4,739.18z M184.47,705.6c0.33,0.05,0.66,0.1,1,0.14
			c11.26-13.57,22.49-27.17,33.79-40.7c7.7-9.22,7.65-9.12,1.44-19.55c-1.45-2.43-2.97-3.09-5.6-2.6
			c-4.41,0.81-8.85,1.59-13.31,1.96c-3.07,0.25-4.28,1.59-4.86,4.5c-1.39,7-3.12,13.93-4.67,20.9
			C189.65,682.03,187.07,693.82,184.47,705.6z M303.95,687.91c7.16-10.21,13.9-19.82,20.96-29.88
			c-19.62-5.91-38.78-11.68-57.93-17.45c-0.21,0.33-0.43,0.66-0.64,0.98C278.73,656.83,291.13,672.1,303.95,687.91z M335.1,554.72
			c-15.89-7.92-30.81-15.36-46.42-23.13c0.48,6.03,0.26,11.3,1.44,16.24c1.74,7.29-1.58,11.23-7.09,15.06
			c-7.26,5.06-14,10.86-20.96,16.34c0.19,0.32,0.38,0.65,0.56,0.97C286.47,571.81,310.31,563.43,335.1,554.72z M254.34,589.84
			c-0.48-0.14-0.95-0.27-1.43-0.41c-5.31,18.39-10.62,36.77-15.93,55.16c0.25,0.16,0.5,0.33,0.75,0.49
			c26.74-25.32,53.49-50.63,80.23-75.95c-0.18-0.23-0.35-0.46-0.53-0.69c-19.63,13.17-39.26,26.34-59.39,39.85
			C256.74,601.75,255.54,595.79,254.34,589.84z M66.63,628.98c-0.34,0.76-0.5,0.93-0.47,1.06c7.97,32.22,15.94,64.45,24.01,96.65
			c0.24,0.96,1.7,2.34,2.54,2.3c6.39-0.29,12.76-0.89,19.13-1.39c-3.73-5.88-7.85-10.96-10.44-16.72
			c-7.16-15.9-13.66-32.09-20.45-48.16C76.26,651.6,71.52,640.5,66.63,628.98z M139.86,830.99c-2.45-16.93-4.7-32.41-6.94-47.94
			c-13.38,0-26.04,0-39.77,0C108.87,799.19,123.87,814.59,139.86,830.99z M23.69,690.24c0.29,0.18,0.59,0.37,0.88,0.55
			c13.37-12.18,26.76-24.35,40.08-36.59c0.73-0.67,1.42-2.11,1.22-2.98c-2.56-10.98-5.28-21.92-8.28-34.16
			C45.89,642.32,34.79,666.28,23.69,690.24z M174.38,646.18c-17.13-14.46-33.96-28.67-50.79-42.88c-0.38,0.2-0.77,0.4-1.15,0.59
			c1.75,6.61,3.85,13.16,5.15,19.85c1.01,5.21,3.36,8.53,8.42,10.43c7.49,2.82,13.81,7.19,16.71,15.19
			c1.84,5.06,3.67,10.12,5.74,15.83C163.97,658.6,169.05,652.54,174.38,646.18z M356.7,546.07c-0.98,4.62-1.89,8.45-2.58,12.32
			c-0.78,4.39-2.63,9.06-1.8,13.17c2.35,11.62,5.83,23.02,9.18,35.69c6.75-13.93,13.05-26.84,19.21-39.82
			c0.34-0.72-0.12-2.4-0.78-2.93C372.37,558.37,364.7,552.38,356.7,546.07z M217.07,73.56c-31.05,13.75-38.44,28.12-37.3,45.73
			c14.93-9.92,29.68-19.72,44.53-29.59C221.79,84.11,219.5,79,217.07,73.56z M326,462.48c7.9,1.75,14.54,2.86,20.95,4.78
			c3.96,1.19,5.21-0.39,7.32-3.33c7.47-10.41,7.89-22.6,9.68-34.48c0.42-2.76,0.66-5.54,1.16-9.73
			C351.64,434.44,339.28,447.96,326,462.48z M230.22,625.99c0.31-0.03,0.63-0.06,0.94-0.09c4.21-16.22,8.43-32.44,12.95-49.84
			c-8.07,3.03-14.77,5.41-21.32,8.16c-0.88,0.37-1.62,2.74-1.36,3.94C224.24,600.8,227.26,613.39,230.22,625.99z M128.85,595.07
			c10.66,7.23,21.03,14.26,31.39,21.3c0.24-0.22,0.48-0.44,0.72-0.65c-7.22-14.89-14.45-29.78-22.12-45.58
			C135.25,579.1,132.17,586.79,128.85,595.07z M166.69,827.88c0.64-1.42,0.97-1.84,1.01-2.27c1.4-18.41,2.8-36.83,4.06-55.25
			c0.07-1-0.97-2.08-1.49-3.12c-1.17,0.81-2.96,1.37-3.4,2.47c-3.53,8.77-6.85,17.63-10.13,26.5c-0.42,1.15-0.65,2.67-0.26,3.76
			C159.68,809,163.04,817.97,166.69,827.88z M369.11,450.75c-0.5-0.15-1-0.3-1.5-0.46c-4.59,12.81-11.97,22.77-26.67,25.22
			c0.33,0.39,0.66,0.78,0.98,1.17c10.52,3.3,21.04,6.6,32.38,10.15C372.5,474.26,370.8,462.51,369.11,450.75z M323.68,475.99
			c-3.8,13.83-3.71,13.71,5.04,20.07c2.68,1.95,4.98,1.88,7.79,0.84c3.87-1.43,7.84-2.62,11.76-3.93c3.63-1.22,7.24-2.47,12.18-4.16
			C347.28,484.22,335.62,480.16,323.68,475.99z M324.06,619.54c2.26-7.56,4.45-14.48,6.33-21.49c0.33-1.24-0.61-2.83-1.33-5.72
			c-7.19,8.17-13.45,15.3-19.56,22.24C313.31,615.87,318.3,617.57,324.06,619.54z M119.67,600.84c-9.46,0.84-18.66,1.66-27.87,2.48
			c-0.07,0.37-0.14,0.74-0.21,1.1c8.58,4.56,17.16,9.12,26.13,13.89C118.41,612.13,118.99,606.87,119.67,600.84z M260.91,599.27
			c10.52-6.65,19.92-12.59,29.32-18.54c-0.13-0.33-0.26-0.65-0.39-0.98c-9.75,1.9-19.49,3.8-28.92,5.64
			C260.91,589.96,260.91,593.89,260.91,599.27z"/>
	</g>
</g>
</svg>
