<?xml version="1.0" encoding="utf-8"?>
<!-- Generator: Adobe Illustrator 23.0.1, SVG Export Plug-In . SVG Version: 6.00 Build 0)  -->
<svg version="1.1" id="Layer_1" xmlns="http://www.w3.org/2000/svg" xmlns:xlink="http://www.w3.org/1999/xlink" x="0px" y="0px"
	 viewBox="0 0 480.94 861.89" style="enable-background:new 0 0 480.94 861.89;" xml:space="preserve">
<style type="text/css">
	.st0{fill:#FFFFFF;}
</style>
<g>
	<g>
		<path class="st0" d="M480.9,631.93c0,2.67,0,5.33,0,8c-12.69,4.25-25.39,8.5-38.59,12.92c9.24,13.48,18.02,26.27,26.98,39.34
			c4.17-4.4,7.89-8.33,11.61-12.26c0,60.64,0,121.28,0,181.95c-160.25,0-320.51,0-480.85,0c0-287.27,0-574.57,0-861.87
			c98.62,0,197.25,0,295.88,0c-1.07,1.24-2.08,2.55-3.23,3.71c-16.36,16.39-32.64,32.86-49.2,49.05c-3.33,3.26-3.92,5.84-2.27,10.24
			c21.43,57.06,42.61,114.22,64,171.3c1.21,3.23,0.84,5.39-1.14,8.07c-15.54,21.01-31.19,41.95-46.23,63.32
			c-4.37,6.21-9.68,5.97-16.55,6.05c1.34-2.07,2.14-3.47,3.08-4.77c16.19-22.19,32.35-44.4,48.64-66.5c1.97-2.67,2.42-4.82,1.2-8.07
			c-20.3-54.29-40.44-108.65-60.64-162.98c-0.53-1.44-1.26-2.8-2.31-5.08c-1.43,1.78-2.27,3.06-3.32,4.11
			c-26.25,26.29-52.48,52.6-78.86,78.76c-2.66,2.64-3.07,4.53-1.57,8.04c24.48,57.47,48.78,115.02,73.11,172.55
			c0.74,1.76,1.33,3.57,2.02,5.42c-3.05,1.76-5.53,3.49-8.24,4.69c-4.58,2.02-7.04,5.33-8.7,10.09c-5.2,14.89-10.92,29.6-16.41,44.4
			c-4.71,12.69-9.39,25.4-14.29,38.66c1.6-0.27,2.56-0.35,3.48-0.59c30.03-7.94,60.06-15.84,90.05-23.93
			c2.94-0.79,5.81-2.43,8.3-4.24c32.17-23.41,64.32-46.84,96.35-70.43c16.87-12.43,33.99-24.58,50.09-37.95
			c19.71-16.37,38.46-33.9,57.63-50.93c0,4.67,0,9.33,0,14c-21.21,17.46-42.44,34.9-63.56,52.46c-1.42,1.18-2.43,3.16-3.03,4.97
			c-20.86,62.72-41.68,125.46-62.34,188.26c-0.6,1.82-0.1,4.58,0.93,6.24c4.84,7.77,10.04,15.3,15.13,22.92
			c2.36,3.53,4.74,7.04,7.25,10.76c20.43-14.08,40.37-27.66,60.07-41.58c2.58-1.83,4.73-5.13,5.75-8.19
			c11.77-35.29,23.26-70.68,34.89-106.02c1.43-4.34,3.27-8.55,4.92-12.82c0,12.67,0,25.33,0,38c-0.33,0.57-0.75,1.1-0.99,1.7
			c-10.1,25.1-20.18,50.2-30.26,75.3c-0.26,0.66-0.34,1.39-0.68,2.81c11.09-7.58,21.51-14.7,31.93-21.82c0,3.33,0,6.67,0,10
			c-0.75,0.3-1.58,0.49-2.24,0.93c-44,30.01-87.98,60.04-131.95,90.09c-0.95,0.65-2.43,1.45-2.5,2.28c-0.29,3.17-2.6,3.23-4.79,3.85
			c-22.04,6.28-44.07,12.6-66.1,18.94c-9.64,2.77-19.27,5.59-29.58,8.59c1.09,0.74,1.42,1.1,1.81,1.21
			c21.14,5.82,42.26,11.69,63.45,17.28c1.5,0.4,4.05-0.75,5.26-2.01c14.19-14.78,28.21-29.72,42.27-44.63
			c1.26-1.33,3.06-2.52,3.58-4.11c1.87-5.71,6.71-3.93,10.53-4.93c-0.75,1.74-1.8,2.97-2.92,4.12
			c-16.25,16.74-32.57,33.4-48.65,50.29c-1.82,1.91-3.12,5.12-3.17,7.76c-0.25,15.32-0.05,30.65,0.01,45.98
			c0.01,1.38,0.17,2.76,0.32,5.12c26.03-33.52,51.41-66.2,77.06-99.23c1.71,2.42,3.06,4.3,4.37,6.21
			c11.67,17.02,23.42,33.99,34.91,51.13c2.35,3.51,4.34,4.76,8.79,3.46C454.45,638.47,467.71,635.34,480.9,631.93z M215,332.84
			c-0.19-0.94-0.21-1.45-0.4-1.88c-10.15-22.03-20.27-44.07-30.58-66.02c-0.82-1.74-2.72-3.31-4.5-4.21
			c-30.49-15.55-61.07-30.94-91.55-46.53c-3.13-1.6-4.89-1.07-7.21,1.35c-8.21,8.51-16.66,16.78-25.02,25.14
			c-16.95,16.95-33.9,33.9-51.14,51.13c1.23,1.69,2.21,3.39,3.52,4.77c8.94,9.36,17.9,18.7,26.94,27.97
			c14.96,15.36,30.06,30.57,44.92,46.02c6.99,7.26,17.15,11.76,19.32,23.53C138.51,373.34,176.78,353.08,215,332.84z M247.96,519.02
			c6.85-33.07,13.61-65.6,20.25-98.15c0.36-1.74,0.15-4-0.75-5.42c-0.41-0.65-3.27-0.19-4.78,0.37
			c-19.45,7.28-38.86,14.66-58.28,22.02c-11.14,4.22-22.28,8.43-33.69,12.74c0.67,1.81,1.13,3.2,1.69,4.55
			c19.47,46.97,38.95,93.93,58.43,140.9c2.83,6.83,3.16,7.21,10.23,5.31c15.99-4.3,31.73-9.78,47.91-13.12
			c22.24-4.59,42.35-12.94,59.96-27.41c5.98-4.91,12.72-8.89,19.35-13.46c-8.6-11.47-16.82-22.56-25.26-33.47
			c-0.87-1.12-3.13-1.78-4.67-1.67c-23.58,1.74-47.14,3.67-70.71,5.51C261.18,518.22,254.73,518.58,247.96,519.02z M392.28,592.08
			c-24.21,30.64-48.08,60.86-72.16,91.36c10.78,0.81,19.73-0.91,23.73-11.79c8.36,4.26,15.88,8.1,24.75,12.63
			c3.69-3.82,7.48-7.74,11.32-11.72c-0.17,1.61-0.15,3.31-0.56,4.89c-1.25,4.84,0.22,8.26,3.99,11.74
			c14.92,13.75,29.49,27.88,44.21,41.85c0.44,0.42,1.06,0.66,1.21,0.75c11.75-11.77,23.26-23.3,34.65-34.7
			c-7.51-16.54-21.87-27.26-35.64-38.89c2.36-1.83,4.27-3.31,6.34-4.92C420.16,632.86,406.38,612.71,392.28,592.08z M165.93,243.39
			c-13.61-39.7-26.75-78.07-40.01-116.76c-28.87,16.6-57.15,32.86-86.5,49.73C81.92,198.87,123.26,220.78,165.93,243.39z
			 M343.78,495.42c18.08-57.3,35.83-113.6,53.9-170.87c-1.8,0.92-2.56,1.2-3.21,1.66c-10.59,7.51-21.19,15.01-31.7,22.63
			c-1.56,1.13-2.95,2.73-3.94,4.4c-16.63,28.23-33.21,56.49-49.65,84.83c-0.78,1.35-0.82,4.01,0,5.27
			C320.38,460.46,331.79,477.44,343.78,495.42z M148.17,484.79c5.71-23.03,11.21-45.46,16.87-67.84c1.13-4.45,2.36-9,4.43-13.06
			c8.98-17.6,18.3-35.04,27.47-52.54c0.63-1.19,1.09-2.47,2-4.58c-32.34,18.46-63.74,36.38-95.23,54.36
			C118.67,429.27,133.34,456.88,148.17,484.79z M203.2,681.63c0.35,0.03,0.69,0.06,1.04,0.1c0.56-5.42,1.15-10.83,1.69-16.25
			c2.08-21.19,4.17-42.38,6.17-63.58c0.18-1.86,0.16-3.97-0.53-5.65c-8.6-20.89-17.31-41.74-26.14-62.54
			c-0.67-1.57-2.52-2.64-3.82-3.95c-0.33,0.26-0.65,0.52-0.98,0.77c-1.39-3.76-2.77-7.53-4.16-11.29
			c-0.02,18.52,0.92,36.78,1.95,55.03c0.5,8.81-0.16,17.95,2.01,26.34C187.44,627.77,195.53,654.65,203.2,681.63z M277.11,409.33
			c-0.31-0.05-0.62-0.09-0.93-0.14c-7.1,33.4-14.21,66.8-21.48,100.97c27.75-3.42,54.92-6.78,83.35-10.28
			c-2.63-1.59-4.01-2.46-5.42-3.28c-15.08-8.77-30.22-17.46-45.2-26.4c-1.85-1.11-3.81-3.42-4.14-5.44
			c-1.16-7.04-1.6-14.2-2.38-21.31C279.67,432.09,278.38,420.71,277.11,409.33z M106.51,547.24c13.22,12.84,25.93,25.19,39.04,37.93
			c3.39-20.84,6.66-40.86,10.09-61.92C138.78,531.48,123.03,539.17,106.51,547.24z M282.47,721.7c-0.32-0.17-0.65-0.34-0.97-0.51
			c-25.22,15.47-50.45,30.94-75.67,46.4c17.23-0.65,34.05-2.52,50.93-3.51c7.22-0.43,11.54-2.16,13.75-9.88
			C273.69,743.14,278.41,732.51,282.47,721.7z M283.6,405.14c5.75,8.6,11.22,16.79,17.03,25.48c15.97-23.74,31.49-46.81,47.01-69.87
			c-0.24-0.23-0.48-0.45-0.72-0.68C325.87,375.05,304.83,390.03,283.6,405.14z M106.71,517.07c0.53,0,1.05,0,1.58,0
			c0-22.13,0.05-44.25-0.09-66.38c-0.01-2-0.99-4.17-2.04-5.95c-7.61-12.89-15.34-25.7-23.05-38.52c-1.75-2.92-3.54-5.82-5.32-8.73
			c-0.23,0.11-0.45,0.21-0.68,0.32C86.97,437.57,96.84,477.32,106.71,517.07z M282.07,698.47c-1.23-14.16-2.33-27.05-3.51-39.95
			c-0.08-0.89-0.55-2.03-1.22-2.53c-2.4-1.79-14.42-1.14-15.9,0.03c-12.5-3.93-24.78-2.81-36.74-4.5c-0.08,0.4-0.16,0.8-0.24,1.19
			C243.3,667.69,262.15,682.65,282.07,698.47z M62.24,372.88c0.4-0.45,0.79-0.89,1.19-1.34c-5.79-6.91-11.25-14.15-17.48-20.63
			c-5.99-6.22-12.79-11.67-19.24-17.44c-8.03-7.18-16.08-14.35-24.52-21.88c0,1.14-0.16,1.68,0.02,2.04
			c8.15,16.17,16.3,32.34,24.57,48.45c0.6,1.17,1.93,2.43,3.16,2.74C40.67,367.63,51.47,370.22,62.24,372.88z M357.23,776.24
			c0.83-0.78,1.29-1.03,1.48-1.42c5.89-12.07,11.79-24.14,17.57-36.27c0.6-1.25,0.9-2.97,0.58-4.29
			c-2.64-10.86-5.46-21.68-8.62-34.07c-3.95,9.98-7.64,18.43-10.6,27.14c-1.55,4.58-2.61,9.6-2.51,14.4
			C355.38,753.01,356.45,764.28,357.23,776.24z M344.05,805.78c3.44,6.77,6.52,13.01,9.81,19.14c0.49,0.91,2.14,2.05,2.88,1.83
			c8.48-2.51,16.88-5.27,25.65-8.07c-5.63-10.37-10.9-20.05-16.33-30.06C358.47,794.53,351.44,800.02,344.05,805.78z M312.4,627.27
			c-28.62,1.05-56.83,2.09-85.05,3.13c0.83,1.23,1.64,1.36,2.45,1.43c21.42,1.65,42.83,3.39,64.26,4.85
			c3.32,0.23,4.89,1.19,5.97,4.42c3.16,9.45,6.74,18.76,10.19,28.11c0.53,1.42,1.27,2.77,2.19,4.75
			C312.4,658,312.4,642.9,312.4,627.27z M417.66,735c-11-10.03-21.51-19.63-32.03-29.22c2.62,8.03,6.23,15.44,9.39,23.03
			c0.83,2.01,0.97,4.82,0.26,6.86c-2.75,7.83-5.98,15.49-9.01,23.22c-2.21,5.65-4.37,11.32-6.56,16.99
			c0.23,0.11,0.45,0.21,0.68,0.32C392.65,762.64,404.91,749.09,417.66,735z M316.78,775.62c-0.4-0.1-0.79-0.21-1.19-0.31
			c-3.49,6.94-6.29,14.35-10.63,20.7c-5.91,8.67-4.51,15.27,1.76,23.22c9.84,12.47,18.41,25.94,27.51,38.99
			c0.17-1.83-0.33-3.34-0.92-4.82c-5.61-13.84-11.28-27.65-16.8-41.51c-0.77-1.93-1.27-4.16-1.17-6.21
			c0.3-6.31,1.05-12.59,1.41-18.9C316.95,783.08,316.78,779.34,316.78,775.62z M341.87,725.6c2.68-12.03,5.1-22.91,7.69-34.55
			c-11.16,0-21.26,0-31.79,0C325.72,702.45,333.39,713.45,341.87,725.6z M304.81,704.35c-0.46,0.06-0.93,0.12-1.39,0.17
			c0,13.03,0,26.06,0,39.33c4.85-1.15,9.63-2.27,14.88-3.51C313.72,728.11,309.26,716.23,304.81,704.35z M25.64,374.92
			c4.3,5.48,8.32,11.93,15.41,11.8c10.79-0.21,21.54-2.01,32.31-3.14c0.02-0.35,0.04-0.71,0.06-1.06
			C57.49,379.98,41.56,377.45,25.64,374.92z M69.57,436.95c0.59-7.05,1.1-13.26,1.68-20.21c-6.99,2.67-13.32,5.09-20.38,7.79
			C57.35,428.83,63.09,432.64,69.57,436.95z"/>
	</g>
</g>
</svg>
