<?xml version="1.0" encoding="utf-8"?>
<!-- Generator: Adobe Illustrator 23.0.1, SVG Export Plug-In . SVG Version: 6.00 Build 0)  -->
<svg version="1.1" id="Layer_1" xmlns="http://www.w3.org/2000/svg" xmlns:xlink="http://www.w3.org/1999/xlink" x="0px" y="0px"
	 viewBox="0 0 128 128" style="enable-background:new 0 0 128 128;" xml:space="preserve">
<style type="text/css">
	.st0{fill:#FFFFFF;}
</style>
<g>
	<g>
		<path class="st0" d="M68.06,127.95c-22.64,0-45.29,0-67.97,0c0-42.6,0-85.2,0-127.9c42.52,0,85.08,0,127.8,0
			c0,42.57,0,85.23,0,127.9c-13.2,0-26.52,0-39.84,0c0-16.27,0-32.54,0-49.56c6.06,0,11.43,0,16.96,0
			c0.83-6.75,1.57-12.78,2.39-19.53c-6.74,0-12.78,0-18.94,0c-0.09-1.62-0.18-2.6-0.19-3.58c-0.01-3-0.11-6,0.04-8.99
			c0.32-6.3,2.58-8.6,8.94-8.98c3.44-0.2,6.9-0.04,10.45-0.04c0-6.12,0-11.65,0-17.26c-4.05-0.24-7.7-0.51-11.35-0.68
			c-17.91-0.83-27.82,8.55-28.02,26.5c-0.05,4.26-0.01,8.53-0.01,13.23c-5.75,0-10.84,0-16.09,0c0,6.65,0,12.83,0,19.52
			c5.52,0,10.6,0,15.81,0C68.06,95.39,68.06,111.67,68.06,127.95z"/>
	</g>
</g>
</svg>
