<?xml version="1.0" encoding="utf-8"?>
<!-- Generator: Adobe Illustrator 23.0.1, SVG Export Plug-In . SVG Version: 6.00 Build 0)  -->
<svg version="1.1" id="Layer_1" xmlns="http://www.w3.org/2000/svg" xmlns:xlink="http://www.w3.org/1999/xlink" x="0px" y="0px"
	 viewBox="0 0 1439.82 1160.85" style="enable-background:new 0 0 1439.82 1160.85;" xml:space="preserve">
<style type="text/css">
	.st0{fill:#FFFFFF;}
</style>
<g>
	<g>
		<path class="st0" d="M0,993.88c8.27,1.8,16.55,3.54,24.8,5.41c27.31,6.19,54.62,12.35,81.9,18.66
			c17.44,4.03,34.81,8.37,52.25,12.4c28.55,6.6,57.15,12.98,85.69,19.59c17.6,4.08,35.11,8.51,52.7,12.62
			c25.05,5.85,50.14,11.49,75.19,17.31c25.37,5.89,50.7,11.92,76.06,17.83c31.7,7.39,63.42,14.73,95.13,22.07
			c26.01,6.02,52.02,12.02,78.04,18c24.59,5.66,49.18,11.28,73.78,16.91c7.46,1.71,14.86,4.31,22.4,4.82
			c6.19,0.42,12.62-1.31,18.81-2.71c25.88-5.84,51.71-11.88,77.55-17.92c26.78-6.26,53.54-12.63,80.32-18.89
			c28.69-6.71,57.39-13.37,86.08-20.04c22.99-5.34,45.98-10.68,68.97-15.99c31.88-7.37,63.77-14.67,95.64-22.07
			c25.37-5.89,50.72-11.85,76.07-17.8c27.1-6.36,54.17-12.79,81.28-19.11c22.83-5.32,45.68-10.52,68.52-15.79
			c22.05-5.08,44.09-10.19,66.14-15.26c0.79-0.18,1.66-0.04,2.49-0.04c0,55.66,0,111.32,0,166.98c-479.94,0-959.88,0-1439.82,0
			C0,1105.2,0,1049.54,0,993.88z"/>
		<path class="st0" d="M1435.82,0c-7.13,0.99-14.23,2.19-21.38,2.94c-22.97,2.39-45.95,4.66-68.94,6.9
			c-21.83,2.13-43.68,4.09-65.5,6.25c-21.82,2.16-43.63,4.55-65.45,6.72c-18.35,1.83-36.73,3.43-55.08,5.25
			c-18.52,1.84-37.02,3.87-55.53,5.71c-18.35,1.82-36.73,3.46-55.08,5.27c-18.52,1.83-37.02,3.83-55.54,5.68
			c-14.88,1.49-29.78,2.82-44.66,4.29c-18.52,1.83-37.03,3.75-55.55,5.59c-14.88,1.49-29.77,2.91-44.65,4.39
			c-15.38,1.53-30.75,3.09-46.13,4.62c-14.88,1.48-29.83,2.43-44.63,4.49c-23.95,3.34-47.3-1.99-70.88-3.95
			c-18.05-1.5-36.06-3.37-54.08-5.21c-21.15-2.15-42.29-4.5-63.44-6.66c-18.02-1.84-36.05-3.5-54.07-5.32
			c-17.85-1.81-35.68-3.75-53.53-5.59c-14.55-1.5-29.1-2.9-43.65-4.38c-18.18-1.85-36.35-3.75-54.53-5.6
			c-14.55-1.48-29.1-2.91-43.64-4.39c-18.18-1.85-36.36-3.73-54.54-5.59c-14.55-1.48-29.1-2.92-43.64-4.41
			c-18.34-1.88-36.68-3.79-55.03-5.67c-14.21-1.45-28.43-2.88-42.65-4.31c-20.33-2.04-40.67-4.08-61-6.16
			C62.65,0.84,62.34,0.3,61.99,0C519.93,0,977.88,0,1435.82,0z"/>
	</g>
</g>
</svg>
