<?xml version="1.0" encoding="utf-8"?>
<!-- Generator: Adobe Illustrator 23.0.1, SVG Export Plug-In . SVG Version: 6.00 Build 0)  -->
<svg version="1.1" id="Layer_1" xmlns="http://www.w3.org/2000/svg" xmlns:xlink="http://www.w3.org/1999/xlink" x="0px" y="0px"
	 viewBox="0 0 128 128" style="enable-background:new 0 0 128 128;" xml:space="preserve">
<style type="text/css">
	.st0{fill:#FFFFFF;}
</style>
<g>
	<g>
		<path class="st0" d="M93,129c-18.67,0-37.33,0-56,0c-1.44-0.32-2.87-0.75-4.33-0.94c-15.96-2.01-26.92-12.07-30.29-27.87
			C1.87,97.81,1.46,95.4,1,93c0-18.67,0-37.33,0-56c0.35-1.75,0.77-3.48,1.02-5.24C4.15,16.93,13.72,6.34,28.3,2.81
			C31.18,2.11,34.1,1.6,37,1c18.67,0,37.33,0,56,0c1.61,0.33,3.2,0.77,4.82,0.98c15.04,1.97,25.79,11.58,29.38,26.39
			c0.69,2.85,1.2,5.75,1.8,8.63c0,18.67,0,37.33,0,56c-0.35,1.75-0.77,3.48-1.02,5.24c-2.14,14.85-11.68,25.4-26.28,28.94
			C98.82,127.88,95.9,128.4,93,129z M64.81,12.96c0-0.03,0-0.07,0-0.1c-9.16,0-18.33-0.31-27.47,0.07
			c-15.24,0.63-23.92,8.87-24.39,24.08c-0.57,18.13-0.61,36.3-0.1,54.44c0.48,16.79,9.46,25.28,26.22,25.54
			c17.32,0.27,34.64,0.26,51.96,0c16.44-0.25,25.65-9.43,25.92-25.91c0.29-17.48,0.29-34.98,0.01-52.46
			c-0.26-16.18-9.44-25.19-25.68-25.61C82.47,12.77,73.64,12.96,64.81,12.96z"/>
		<path class="st0" d="M97.91,65c0,18.15-15.01,33.05-33.16,32.92C46.81,97.78,32.09,82.95,32.09,65
			c0-18.15,15.01-33.05,33.16-32.92C83.19,32.22,97.91,47.05,97.91,65z M86.23,64.91c-0.04-11.79-9.5-21.18-21.32-21.14
			c-11.8,0.04-21.18,9.5-21.14,21.32c0.04,11.8,9.5,21.18,21.32,21.14C76.88,86.19,86.27,76.72,86.23,64.91z"/>
		<path class="st0" d="M99.18,38.45c-4.21,0.02-7.56-3.27-7.62-7.49c-0.06-4.14,3.27-7.68,7.36-7.82c4.2-0.15,8.01,3.59,7.95,7.8
			C106.81,35.01,103.31,38.43,99.18,38.45z"/>
	</g>
</g>
</svg>
