<svg id="Layer_1" data-name="Layer 1" xmlns="http://www.w3.org/2000/svg" viewBox="0 0 368 368"><defs><style>.cls-1{fill:#fff;}</style></defs><title>Linkedin_logo</title><path class="cls-1" d="M0,349.31V19.41Q3.81,3.81,19.41,0h329.9c5.25,2,10.57,4,13.76,9,2,3,3.31,6.48,4.93,9.74V349.31a88.71,88.71,0,0,1-4.28,8.89c-3.31,5.33-8.71,7.85-14.41,9.8H18.69a83.64,83.64,0,0,1-8.61-4.06C4.61,360.6,2,355.14,0,349.31ZM149.74,126.64v160.6H195.5V283c0-29.34,0-58.68,0-88,0-13.06,6.37-20.53,18.61-22.31,14.89-2.16,25.3,5,27.14,18.68a43.87,43.87,0,0,1,.21,5.74q0,43.11,0,86.23v3.94h45.78a8.55,8.55,0,0,0,.2-1.21c0-30.54.09-61.08-.19-91.62-.11-12.09-1.28-24.15-4.88-35.81-4-12.94-11.18-23.25-24.27-28.41-9.69-3.82-19.85-4.35-30.06-3.5-14.19,1.18-27.55,4-32.67,20.3V126.64Zm-69,0V287.25h45.54V126.62ZM103.52,69a23,23,0,1,0,23,23.11A23,23,0,0,0,103.52,69Z"/></svg>