<?xml version="1.0" encoding="UTF-8" standalone="no"?>
<!-- Generator: Adobe Illustrator 23.0.1, SVG Export Plug-In . SVG Version: 6.00 Build 0)  -->

<svg
   xmlns:dc="http://purl.org/dc/elements/1.1/"
   xmlns:cc="http://creativecommons.org/ns#"
   xmlns:rdf="http://www.w3.org/1999/02/22-rdf-syntax-ns#"
   xmlns:svg="http://www.w3.org/2000/svg"
   xmlns="http://www.w3.org/2000/svg"
   xmlns:sodipodi="http://sodipodi.sourceforge.net/DTD/sodipodi-0.dtd"
   xmlns:inkscape="http://www.inkscape.org/namespaces/inkscape"
   version="1.1"
   id="Layer_1"
   x="0px"
   y="0px"
   viewBox="0 0 1439.82 627.92"
   style="enable-background:new 0 0 1439.82 627.92;"
   xml:space="preserve"
   sodipodi:docname="Podcast_oppimateriaali_taustaMaski.svg"
   inkscape:version="0.92.3 (2405546, 2018-03-11)"><metadata
   id="metadata3793"><rdf:RDF><cc:Work
       rdf:about=""><dc:format>image/svg+xml</dc:format><dc:type
         rdf:resource="http://purl.org/dc/dcmitype/StillImage" /><dc:title></dc:title></cc:Work></rdf:RDF></metadata><defs
   id="defs3791" /><sodipodi:namedview
   pagecolor="#ffffff"
   bordercolor="#666666"
   borderopacity="1"
   objecttolerance="10"
   gridtolerance="10"
   guidetolerance="10"
   inkscape:pageopacity="0"
   inkscape:pageshadow="2"
   inkscape:window-width="1121"
   inkscape:window-height="1043"
   id="namedview3789"
   showgrid="false"
   inkscape:pagecheckerboard="true"
   showborder="true"
   inkscape:zoom="1"
   inkscape:cx="906.55472"
   inkscape:cy="138.06633"
   inkscape:window-x="2719"
   inkscape:window-y="36"
   inkscape:window-maximized="0"
   inkscape:current-layer="Layer_1" />
<style
   type="text/css"
   id="style3778">
	.st0{fill:#FFFFFF;}
</style>
<g
   id="g3786"
   style="image-rendering:auto"
   transform="matrix(1,0,0,1.001589,-0.875,-1.8743436)">
	<g
   id="g3784">
		<path
   class="st0"
   d="m 1426.82,1 c -7.28,1 -14.53,2.21 -21.84,2.95 -19.83,2.03 -39.67,3.87 -59.51,5.77 -14.88,1.43 -29.75,2.82 -44.63,4.27 -19.66,1.92 -39.31,3.92 -58.97,5.82 -15.21,1.46 -30.44,2.75 -45.65,4.23 -19.16,1.86 -38.31,3.87 -57.48,5.74 -15.05,1.47 -30.11,2.8 -45.16,4.21 -16.03,1.5 -32.07,3.02 -48.1,4.55 -19.01,1.81 -38.02,3.6 -57.02,5.45 -18.51,1.81 -37,3.72 -55.51,5.51 -19.51,1.88 -39.03,3.62 -58.54,5.52 -18.83,1.83 -37.65,3.84 -56.48,5.69 -15.04,1.48 -30.09,2.84 -45.14,4.26 -14.05,1.33 -28.08,3.36 -42.16,3.78 -11.41,0.35 -22.89,-1.01 -34.31,-2 -16.04,-1.4 -32.05,-3.17 -48.08,-4.77 -18.66,-1.87 -37.33,-3.74 -55.99,-5.57 -11.9,-1.17 -23.81,-2.22 -35.71,-3.38 -19.66,-1.92 -39.32,-3.91 -58.98,-5.83 -14.71,-1.43 -29.44,-2.78 -44.15,-4.18 -15.2,-1.45 -30.4,-2.93 -45.61,-4.39 -19.67,-1.89 -39.35,-3.72 -59.02,-5.66 -18.66,-1.84 -37.31,-3.84 -55.98,-5.68 -15.21,-1.5 -30.43,-2.85 -45.64,-4.3 -18.67,-1.79 -37.34,-3.63 -56.02,-5.42 -12.73,-1.22 -25.47,-2.35 -38.2,-3.61 -19,-1.89 -37.98,-3.91 -56.98,-5.77 C 80.77,6.7 65.53,5.49 50.32,3.95 42.86,3.2 35.44,2 28,1 494.27,1 960.55,1 1426.82,1 Z"
   id="path3780"
   inkscape:connector-curvature="0"
   style="fill:#ffffff" />
		<path
   class="st0"
   d="m 1,576.93 c 13.75,0.93 27.49,1.89 41.24,2.78 11.94,0.78 23.9,1.41 35.84,2.24 17.39,1.22 34.77,2.62 52.16,3.85 15.75,1.11 31.51,2.04 47.26,3.14 22.21,1.55 44.42,3.23 66.63,4.79 15.92,1.12 31.85,2.08 47.77,3.21 17.07,1.21 34.13,2.58 51.2,3.79 11.61,0.82 23.24,1.4 34.85,2.21 17.57,1.23 35.13,2.61 52.7,3.84 15.76,1.11 31.53,2.05 47.29,3.15 21.9,1.53 43.78,3.17 65.68,4.71 16.1,1.13 32.2,2.15 48.29,3.29 17.08,1.21 34.16,2.52 51.24,3.75 9.62,0.7 19.24,1.36 28.87,1.99 17.26,1.13 34.52,2.88 51.79,3.11 14.93,0.21 29.9,-1.21 44.83,-2.13 11.95,-0.74 23.87,-1.85 35.81,-2.73 20.73,-1.54 41.46,-3.05 62.18,-4.56 15.92,-1.16 31.85,-2.28 47.77,-3.45 21.06,-1.54 42.12,-3.12 63.18,-4.64 15.92,-1.15 31.85,-2.21 47.78,-3.37 20.89,-1.52 41.78,-3.12 62.68,-4.65 15.26,-1.12 30.52,-2.19 45.78,-3.31 21.72,-1.59 43.45,-3.22 65.17,-4.77 15.76,-1.13 31.53,-2.12 47.28,-3.27 21.06,-1.54 42.11,-3.2 63.17,-4.73 11.45,-0.83 22.91,-1.45 34.36,-2.29 16.41,-1.2 32.81,-2.53 49.22,-3.76 10.28,-0.77 20.57,-1.47 30.86,-2.17 5.64,-0.38 11.29,-0.69 16.93,-1.03 0,17.66 0,35.33 0,52.99 -479.94,0 -959.88,0 -1439.82,0 C 1,611.59 1,594.26 1,576.93 Z"
   id="path3782"
   inkscape:connector-curvature="0"
   style="fill:#ffffff" />
	</g>
</g>
</svg>