<?xml version="1.0" encoding="UTF-8" standalone="no"?>
<!-- Generator: Adobe Illustrator 23.0.1, SVG Export Plug-In . SVG Version: 6.00 Build 0)  -->

<svg
   xmlns:dc="http://purl.org/dc/elements/1.1/"
   xmlns:cc="http://creativecommons.org/ns#"
   xmlns:rdf="http://www.w3.org/1999/02/22-rdf-syntax-ns#"
   xmlns:svg="http://www.w3.org/2000/svg"
   xmlns="http://www.w3.org/2000/svg"
   xmlns:sodipodi="http://sodipodi.sourceforge.net/DTD/sodipodi-0.dtd"
   xmlns:inkscape="http://www.inkscape.org/namespaces/inkscape"
   version="1.1"
   id="Layer_1"
   x="0px"
   y="0px"
   viewBox="0 0 1439.82 627.92"
   style="enable-background:new 0 0 1439.82 627.92;"
   xml:space="preserve"
   sodipodi:docname="Podcast_oppimateriaali_taustaMaski.svg"
   inkscape:version="0.92.3 (2405546, 2018-03-11)"><metadata
   id="metadata17"><rdf:RDF><cc:Work
       rdf:about=""><dc:format>image/svg+xml</dc:format><dc:type
         rdf:resource="http://purl.org/dc/dcmitype/StillImage" /><dc:title /></cc:Work></rdf:RDF></metadata><defs
   id="defs15">
	
</defs><sodipodi:namedview
   pagecolor="#ffffff"
   bordercolor="#666666"
   borderopacity="1"
   objecttolerance="10"
   gridtolerance="10"
   guidetolerance="10"
   inkscape:pageopacity="0"
   inkscape:pageshadow="2"
   inkscape:window-width="1920"
   inkscape:window-height="1043"
   id="namedview13"
   showgrid="false"
   inkscape:pagecheckerboard="true"
   inkscape:zoom="104.09913"
   inkscape:cx="1442.1955"
   inkscape:cy="624.90185"
   inkscape:window-x="1920"
   inkscape:window-y="36"
   inkscape:window-maximized="1"
   inkscape:current-layer="g8" />
<style
   type="text/css"
   id="style2">
	.st0{fill:#FFFFFF;}
</style>
<g
   id="g8">
		<path
   style="fill:#ffffff;stroke-width:1.02106225"
   inkscape:connector-curvature="0"
   id="path4"
   d="m 1439.8426,0.00566255 c -7.4937,1.01282265 -14.9375,2.36321905 -22.4622,3.11270785 -20.4124,2.05603 -40.835,3.9196237 -61.2577,5.8439868 -15.317,1.4483368 -30.6237,2.8561598 -45.9407,4.3247528 -20.2374,1.94462 -40.4645,3.970265 -60.7019,5.894628 -15.6567,1.478721 -31.334,2.785262 -46.9907,4.28424 -19.7228,1.88385 -39.4351,3.919624 -59.1682,5.813602 -15.492,1.488849 -30.9943,2.835903 -46.4862,4.263983 -16.5009,1.519234 -33.0119,3.058725 -49.5127,4.608344 -19.5683,1.833209 -39.1366,3.646161 -58.69461,5.519883 -19.05361,1.833209 -38.08664,3.7677 -57.14026,5.580653 -20.08299,1.904107 -40.17628,3.666418 -60.25927,5.590781 -19.38301,1.853466 -38.75574,3.889239 -58.13875,5.762961 -15.48171,1.498978 -30.97371,2.876417 -46.46571,4.314625 -14.46263,1.347054 -28.90468,3.403084 -43.39819,3.828469 -11.74511,0.354488 -23.56226,-1.02295 -35.31765,-2.025645 C 671.39678,65.305682 654.91658,63.512986 638.41581,61.89247 619.20778,59.998492 599.98946,58.104513 580.78143,56.251048 568.53195,55.066045 556.27216,54.002581 544.02267,52.827707 523.78528,50.883088 503.54788,48.86757 483.3105,46.922951 468.16848,45.474614 453.00587,44.107304 437.86385,42.689352 422.21745,41.220759 406.57104,39.721782 390.91434,38.243061 370.66665,36.328826 350.40867,34.47536 330.16099,32.510484 310.95296,30.646891 291.75523,28.621245 272.53691,26.757652 256.88021,25.238418 241.21322,23.871107 225.55652,22.402514 206.3382,20.589561 187.11988,18.725968 167.89127,16.913015 154.7874,15.677371 141.67324,14.532882 128.56938,13.256725 109.01137,11.34249 89.473948,9.2965887 69.91594,7.4127385 54.279825,5.9036327 38.592244,4.6781173 22.935543,3.1183704 15.25645,2.3587534 7.6473516,1.008879 -0.01115316,-0.00394368 Z"
   class="st0"
   sodipodi:nodetypes="ccccccccccccccccccccccccccccccc" />
		<path
   style="fill:#ffffff;stroke-width:1"
   inkscape:connector-curvature="0"
   id="path6"
   d="m 0.13054351,576.93 c 13.75000049,0.93 27.49000049,1.89 41.24000049,2.78 11.939999,0.78 23.899999,1.41 35.839999,2.24 17.390001,1.22 34.769997,2.62 52.159997,3.85 15.75,1.11 31.51,2.04 47.26,3.14 22.21,1.55 44.42001,3.23 66.63001,4.79 15.91999,1.12 31.84999,2.08 47.76999,3.21 17.07,1.21 34.13,2.58 51.2,3.79 11.61,0.82 23.24001,1.4 34.85001,2.21 17.57,1.23 35.12999,2.61 52.69999,3.84 15.76001,1.11 31.53,2.05 47.29001,3.15 21.89999,1.53 43.77999,3.17 65.67999,4.71 16.1,1.13 32.2,2.15 48.29,3.29 17.08,1.21 34.16001,2.52 51.24,3.75 9.62,0.7 19.24,1.36 28.87,1.99 17.26001,1.13 34.52,2.88 51.79,3.11 14.93,0.21 29.9,-1.21 44.83,-2.13 11.95001,-0.74 23.87,-1.85 35.81,-2.73 20.73,-1.54 41.46,-3.05 62.18,-4.56 15.92001,-1.16 31.85001,-2.28 47.77,-3.45 21.06001,-1.54 42.12,-3.12 63.18,-4.64 15.92001,-1.15 31.84996,-2.21 47.77996,-3.37 20.89,-1.52 41.7801,-3.12 62.6801,-4.65 15.26,-1.12 30.5199,-2.19 45.7799,-3.31 21.72,-1.59 43.4501,-3.22 65.1701,-4.77 15.76,-1.13 31.5299,-2.12 47.2799,-3.27 21.06,-1.54 42.1101,-3.2 63.1701,-4.73 11.45,-0.83 22.9099,-1.45 34.3599,-2.29 16.41,-1.2 32.81,-2.53 49.22,-3.76 10.28,-0.77 20.5701,-1.47 30.8601,-2.17 5.64,-0.38 11.2899,-0.69 16.9299,-1.03 0,17.66 0,35.33 0,52.99 -479.93996,0 -959.87996,0 -1439.81995649,0 0.01,-17.32 0.01,-34.65 0.01,-51.98 z"
   class="st0" />
	</g>
</svg>