<svg id="podcast_henkilot_bg_Image" data-name="podcast_henkilot_bg Image" xmlns="http://www.w3.org/2000/svg" preserveAspectRatio="none" viewBox="0 0 1440 880.56"><defs><style>.cls-1{fill:#f4f4f4;}.cls-2{fill:#fff;}</style></defs><title>podcast_henkilot_bg_Kulmat_ylhäällä_ja_alhaalla</title><path class="cls-1" d="M1,790c15.48,1.93,31,3.94,46.44,5.77,33.36,3.92,66.73,7.73,100.09,11.62q40.33,4.7,80.65,9.47,36.42,4.3,72.83,8.66,48.3,5.68,96.61,11.29,50.24,5.9,100.48,11.84c26.75,3.12,53.51,6.14,80.26,9.27q44.8,5.25,89.61,10.6c12.87,1.53,25.72,3.46,38.63,4.36,6.88.48,13.92-.61,20.84-1.4,23.95-2.73,47.88-5.63,71.81-8.47q42.07-5,84.13-10c21.15-2.48,42.31-4.82,63.45-7.3,18.14-2.13,36.27-4.4,54.41-6.54,21.31-2.51,42.62-4.94,63.93-7.43q27-3.15,53.95-6.37,31-3.66,61.93-7.32c19.64-2.34,39.27-4.75,58.91-7.07q34.15-4,68.33-8,33.42-3.93,66.84-7.9c20.3-2.4,40.59-4.84,60.9-7.2a35.93,35.93,0,0,1,5,.08v93H1Z" transform="translate(-1 -0.44)"/><path class="cls-2" d="M1441,3c-28.44,3-56.88,5.9-85.3,9q-44.9,5-89.74,10.28c-27.1,3.17-54.17,6.51-81.27,9.67-29.9,3.5-59.82,6.84-89.73,10.33-27.09,3.17-54.17,6.5-81.26,9.67s-54.21,6.17-81.31,9.34c-29.9,3.5-59.79,7.16-89.69,10.66-27.1,3.17-54.21,6.19-81.31,9.34-15.69,1.83-31.35,4-47.07,5.55-5.56.53-11.29-.23-16.89-.87q-56.28-6.39-112.54-13-47.08-5.46-94.18-10.94c-33-3.86-66.07-7.83-99.12-11.67-27.43-3.18-54.88-6.17-82.31-9.36-33-3.83-66.07-7.84-99.12-11.67S144,21.92,111,18.05C84.08,14.9,57.2,11.51,30.29,8.24c-8.51-1-17-2-25.55-3A21.15,21.15,0,0,1,1,4V1H4q716.25,0,1432.5.14C1437.79,1.14,1441.13-1.33,1441,3Z" transform="translate(-1 -0.44)"/></svg>