<?xml version="1.0" encoding="UTF-8" standalone="no"?>
<svg
   xmlns:dc="http://purl.org/dc/elements/1.1/"
   xmlns:cc="http://creativecommons.org/ns#"
   xmlns:rdf="http://www.w3.org/1999/02/22-rdf-syntax-ns#"
   xmlns:svg="http://www.w3.org/2000/svg"
   xmlns="http://www.w3.org/2000/svg"
   xmlns:sodipodi="http://sodipodi.sourceforge.net/DTD/sodipodi-0.dtd"
   xmlns:inkscape="http://www.inkscape.org/namespaces/inkscape"
   id="podcast_henkilot_bg_Image"
   data-name="podcast_henkilot_bg Image"
   viewBox="0 0 1439 880.09"
   version="1.1"
   sodipodi:docname="podcast_henkilot_bg_ilman_yläkulmaa.svg"
   width="1439"
   height="880.09003"
   preserveAspectRatio="none"
   inkscape:version="0.92.3 (2405546, 2018-03-11)">
  <metadata
     id="metadata15">
    <rdf:RDF>
      <cc:Work
         rdf:about="">
        <dc:format>image/svg+xml</dc:format>
        <dc:type
           rdf:resource="http://purl.org/dc/dcmitype/StillImage" />
        <dc:title>podcast_henkilot_bg_ilman_yläkulmaa</dc:title>
      </cc:Work>
    </rdf:RDF>
  </metadata>
  <sodipodi:namedview
     pagecolor="#ffffff"
     bordercolor="#666666"
     borderopacity="1"
     objecttolerance="10"
     gridtolerance="10"
     guidetolerance="10"
     inkscape:pageopacity="0"
     inkscape:pageshadow="2"
     inkscape:window-width="1920"
     inkscape:window-height="1043"
     id="namedview13"
     showgrid="false"
     inkscape:pagecheckerboard="true"
     inkscape:zoom="0.53630877"
     inkscape:cx="738.50522"
     inkscape:cy="563.88765"
     inkscape:window-x="1920"
     inkscape:window-y="0"
     inkscape:window-maximized="1"
     inkscape:current-layer="podcast_henkilot_bg_Image" />
  <defs
     id="defs4">
    <style
       id="style2">.cls-1{fill:#fff;}</style>
  </defs>
  <title
     id="title6">podcast_henkilot_bg_ilman_yläkulmaa</title>
  <path
     class="cls-1"
     d="m 0,790 c 7.58,0.71 15.17,1.29 22.73,2.16 21.93,2.55 43.85,5.22 65.78,7.83 q 36.83,4.4 73.67,8.76 c 26.72,3.14 53.45,6.17 80.17,9.29 30.17,3.53 60.34,7.15 90.51,10.67 29.69,3.46 59.39,6.82 89.08,10.29 24.07,2.82 48.13,5.78 72.2,8.58 30.18,3.51 60.37,6.88 90.54,10.4 23.92,2.79 47.81,5.72 71.72,8.6 16.8,2 33.57,4.47 50.43,5.9 6.66,0.57 13.52,-1 20.28,-1.8 q 50.46,-5.84 100.91,-11.77 c 23.9,-2.83 47.78,-5.82 71.68,-8.66 26.88,-3.18 53.77,-6.26 80.65,-9.42 q 40.82,-4.8 81.61,-9.65 c 26,-3.06 52.11,-6 78.16,-9.1 q 50.71,-6 101.44,-12.05 59.34,-7 118.7,-14 37.34,-4.4 74.67,-8.8 c 1.46,-0.17 2.94,-0.16 4.8,-0.25 v 93.09 H 4.5 c -1.5,0 -3,-0.05 -4.5,-0.08 z"
     id="path10"
     inkscape:connector-curvature="0"
     style="fill:#ffffff" />
</svg>
