<?xml version="1.0" encoding="utf-8"?>
<!-- Generator: Adobe Illustrator 23.0.1, SVG Export Plug-In . SVG Version: 6.00 Build 0)  -->
<svg version="1.1" id="podcast_x5F_henkilot_x5F_bg_xA0_Image_1_"
	 xmlns="http://www.w3.org/2000/svg" xmlns:xlink="http://www.w3.org/1999/xlink" preserveAspectRatio="none" x="0px" y="0px" viewBox="0 0 1440 1759"
	 style="enable-background:new 0 0 1440 1759;" xml:space="preserve">
<style type="text/css">
	.st0{fill:none;}
	.st1{fill:#F4F4F4;stroke:#FFFFFF;stroke-miterlimit:10;}
	.st2{fill:#FFFFFF;stroke:#FFFFFF;stroke-miterlimit:10;}
</style>
<g>
	<g>
		<path class="st0" d="M1.01,1578.11c0-525,0-1050,0-1575C4.68,3.13,8.37,2.88,12,3.23c12.41,1.18,24.79,2.64,37.2,3.85
			C54.79,7.62,60.41,7.68,66,8.21c12.91,1.22,25.8,2.64,38.7,3.88c8.02,0.78,16.07,1.35,24.09,2.08c13.9,1.28,27.8,2.65,41.7,3.92
			c5.09,0.46,10.21,0.61,15.29,1.1c13.07,1.25,26.13,2.66,39.2,3.9c5.25,0.5,10.54,0.6,15.79,1.1c12.91,1.24,25.79,2.65,38.7,3.9
			c5.09,0.49,10.21,0.59,15.29,1.1c12.24,1.23,24.46,2.68,36.7,3.89c8.35,0.82,16.73,1.33,25.09,2.08
			c14.24,1.28,28.46,2.64,42.7,3.94c7.86,0.72,15.73,1.34,23.59,2.08c13.74,1.28,27.46,2.66,41.2,3.91
			c8.52,0.77,17.07,1.28,25.59,2.09c12.91,1.23,25.79,2.7,38.7,3.9c9.02,0.84,18.07,1.26,27.09,2.09
			c13.24,1.21,26.46,2.66,39.7,3.92c4.92,0.47,9.88,0.6,14.79,1.11c12.07,1.24,24.12,2.69,36.2,3.88c8.52,0.84,17.07,1.34,25.59,2.1
			c14.24,1.27,28.45,2.84,42.7,3.84c7.33,0.52,14.74,0.35,22.09,0.02c9.04-0.4,18.07-1.2,27.09-2c13.91-1.23,27.8-2.65,41.7-3.92
			c8.19-0.75,16.4-1.3,24.59-2.1c12.74-1.24,25.46-2.66,38.2-3.89c8.19-0.79,16.4-1.35,24.59-2.08c14.4-1.29,28.8-2.65,43.2-3.93
			c5.09-0.45,10.21-0.62,15.29-1.14c11.91-1.22,23.79-2.68,35.7-3.83c6.24-0.6,12.55-0.54,18.79-1.14
			c12.08-1.17,24.12-2.7,36.2-3.87c8.85-0.86,17.73-1.31,26.59-2.09c14.4-1.26,28.8-2.64,43.2-3.95c7.7-0.7,15.4-1.35,23.09-2.06
			c13.9-1.29,27.8-2.66,41.7-3.92c8.52-0.77,17.07-1.3,25.59-2.11c12.74-1.22,25.47-2.6,38.2-3.9c8.64-0.88,17.29-1.76,25.94-2.57
			c12.57-1.18,25.15-2.35,37.73-3.41c9.19-0.78,18.41-1.28,27.59-2.08c14.24-1.24,28.47-2.65,42.7-3.93
			c8.19-0.74,16.4-1.34,24.59-2.08c14.07-1.28,28.13-2.62,42.2-3.93c0,523,0,1046,0,1569c-1.48,0.16-3.01,0.15-4.44,0.49
			c-18.6,4.49-37.15,9.15-55.78,13.53c-20.92,4.92-41.93,9.46-62.84,14.41c-32.77,7.75-65.47,15.8-98.24,23.56
			c-22.67,5.37-45.43,10.35-68.11,15.68c-35.54,8.36-71.04,16.93-106.58,25.29c-23.11,5.44-46.28,10.62-69.4,16.03
			c-25.01,5.85-50,11.8-74.99,17.75c-27.05,6.43-54.09,12.93-81.14,19.35c-30.72,7.3-61.43,14.64-92.2,21.74
			c-6.67,1.54-13.77,3.65-20.3,2.76c-12.25-1.67-24.23-5.33-36.31-8.18c-27.39-6.46-54.75-13-82.16-19.39
			c-25.63-5.97-51.31-11.71-76.94-17.69c-20.09-4.69-40.11-9.69-60.2-14.39c-24.37-5.7-48.8-11.14-73.16-16.85
			c-22.65-5.31-45.24-10.88-67.89-16.22c-21.36-5.04-42.77-9.88-64.14-14.89c-24.25-5.69-48.48-11.48-72.73-17.2
			c-18.62-4.4-37.24-8.77-55.86-13.15c-16.29-3.83-32.59-7.62-48.87-11.48C46.15,1588.9,23.59,1583.49,1.01,1578.11z"/>
		<path class="st1" d="M1.01,1578.11c22.57,5.38,45.14,10.79,67.72,16.14c16.28,3.86,32.58,7.65,48.87,11.48
			c18.62,4.38,37.24,8.75,55.86,13.15c24.24,5.73,48.47,11.52,72.73,17.2c21.37,5.01,42.78,9.85,64.14,14.89
			c22.65,5.34,45.24,10.92,67.89,16.22c24.37,5.71,48.79,11.15,73.16,16.85c20.09,4.7,40.11,9.7,60.2,14.39
			c25.63,5.98,51.31,11.72,76.94,17.69c27.4,6.38,54.77,12.93,82.16,19.39c12.09,2.85,24.06,6.51,36.31,8.18
			c6.53,0.89,13.64-1.22,20.3-2.76c30.77-7.09,61.48-14.44,92.2-21.74c27.05-6.42,54.09-12.92,81.14-19.35
			c24.99-5.94,49.98-11.9,74.99-17.75c23.12-5.41,46.29-10.59,69.4-16.03c35.54-8.37,71.04-16.93,106.58-25.29
			c22.68-5.33,45.44-10.32,68.11-15.68c32.77-7.76,65.47-15.8,98.24-23.56c20.91-4.95,41.92-9.49,62.84-14.41
			c18.62-4.38,37.18-9.04,55.78-13.53c1.44-0.35,2.96-0.34,4.44-0.49c0,62,0,124,0,186c-480,0-960,0-1440,0
			C1.01,1698.77,1.01,1638.44,1.01,1578.11z"/>
		<path class="st2" d="M1441.01,4.11c-14.06,1.31-28.13,2.65-42.2,3.93c-8.19,0.74-16.4,1.34-24.59,2.08
			c-14.24,1.29-28.46,2.7-42.7,3.93c-9.19,0.8-18.4,1.3-27.59,2.08c-12.58,1.06-25.16,2.24-37.73,3.41
			c-8.65,0.81-17.29,1.69-25.94,2.57c-12.73,1.29-25.46,2.68-38.2,3.9c-8.52,0.81-17.07,1.34-25.59,2.11
			c-13.9,1.26-27.8,2.63-41.7,3.92c-7.7,0.72-15.4,1.36-23.09,2.06c-14.4,1.31-28.79,2.69-43.2,3.95
			c-8.86,0.77-17.74,1.23-26.59,2.09c-12.08,1.17-24.12,2.71-36.2,3.87c-6.24,0.6-12.55,0.54-18.79,1.14
			c-11.91,1.15-23.8,2.61-35.7,3.83c-5.08,0.52-10.2,0.69-15.29,1.14c-14.4,1.28-28.8,2.64-43.2,3.93
			c-8.19,0.73-16.4,1.29-24.59,2.08c-12.74,1.23-25.46,2.66-38.2,3.89c-8.19,0.79-16.4,1.34-24.59,2.1
			c-13.9,1.28-27.79,2.69-41.7,3.92c-9.02,0.8-18.05,1.6-27.09,2c-7.35,0.33-14.76,0.49-22.09-0.02
			c-14.25-1.01-28.47-2.58-42.7-3.84c-8.53-0.76-17.07-1.26-25.59-2.1c-12.08-1.19-24.13-2.64-36.2-3.88
			c-4.92-0.5-9.87-0.64-14.79-1.11c-13.24-1.27-26.46-2.71-39.7-3.92c-9.02-0.83-18.07-1.25-27.09-2.09
			c-12.91-1.2-25.79-2.67-38.7-3.9c-8.52-0.81-17.07-1.31-25.59-2.09c-13.74-1.25-27.46-2.63-41.2-3.91
			c-7.86-0.73-15.73-1.36-23.59-2.08c-14.23-1.3-28.46-2.67-42.7-3.94c-8.36-0.75-16.74-1.26-25.09-2.08
			c-12.24-1.21-24.46-2.66-36.7-3.89c-5.08-0.51-10.21-0.61-15.29-1.1c-12.9-1.25-25.79-2.66-38.7-3.9
			c-5.25-0.5-10.54-0.61-15.79-1.1c-13.07-1.24-26.13-2.65-39.2-3.9c-5.09-0.49-10.21-0.63-15.29-1.1
			c-13.9-1.26-27.8-2.64-41.7-3.92c-8.03-0.74-16.07-1.31-24.09-2.08C91.79,10.84,78.91,9.43,66,8.21
			c-5.58-0.53-11.21-0.59-16.79-1.13C36.8,5.87,24.41,4.41,12,3.23C8.37,2.88,4.68,3.13,1.01,3.11c0.05-1.65-0.62-3.87,2.51-3.02
			c0.62,0.17,1.33,0.02,1.99,0.02c478.5,0,957,0,1435.5,0C1441.01,1.44,1441.01,2.77,1441.01,4.11z"/>
	</g>
</g>
</svg>
