<svg preserveAspectRatio="none" id="podcast_henkilot_bg_Image" data-name="podcast_henkilot_bg Image" xmlns="http://www.w3.org/2000/svg" viewBox="0 0 1440 880.01"><defs><style>.cls-2{fill:#fff;}.cls-1{fill:#f4f4f4;}</style></defs><title>podcast_henkilot_bg_Terävämmät_Kulmat_ylhäällä_ja_alhaalla</title><path class="cls-1" d="M1.39,881.3V697.64c11.84,2.75,23.28,5.29,34.66,8.07q252.36,61.77,504.7,123.6c57.7,14.13,115.43,28.1,173,42.51,9.41,2.36,18.27.88,27-1.22q122.35-29.19,244.59-58.86,224.66-54.22,449.31-108.47c2.25-.55,4.44-1.31,6.65-2v180Z" transform="translate(-1.39 -1.3)"/><path class="cls-2" d="M1441.39,3.3c-13.94,3.16-27.92,6.19-41.83,9.49Q1188.29,63,977,113.28,852,143,726.9,172.63a24.8,24.8,0,0,1-11.14,0q-228.6-55-457.14-110.19Q149.92,36.17,41.19,10.09C29.6,7.32,17.8,5.42,6.1,3.1A8.68,8.68,0,0,1,2.39,1.52c1.34-.08,2.68-.22,4-.22q717.48,0,1435,0Z" transform="translate(-1.39 -1.3)" /></svg>