<?xml version="1.0" encoding="utf-8"?>
<!-- Generator: Adobe Illustrator 23.0.1, SVG Export Plug-In . SVG Version: 6.00 Build 0)  -->
<svg version="1.1" id="Layer_1" xmlns="http://www.w3.org/2000/svg" xmlns:xlink="http://www.w3.org/1999/xlink" x="0px" y="0px"
	 viewBox="0 0 128 128" style="enable-background:new 0 0 128 128;" xml:space="preserve">
<style type="text/css">
	.st0{fill:#FFFFFF;}
</style>
<g>
	<g>
		<path class="st0" d="M39.36,94.58c-12.06-1.75-19.5-7.42-23.94-17.73c3.69-0.28,6.73-0.51,10.68-0.81
			C11.88,69.27,5.53,60.68,6.43,50.3c3.16,0.9,6.33,1.8,9.5,2.71C6.38,42.75,3.06,31.65,9.63,17.93
			c14.42,16.36,31.93,25.7,53.94,27.22c-1.03-7.07-0.17-13.3,3.25-19.12c8.17-13.88,26.35-17.38,38.8-7.17
			c2.39,1.96,4.44,2.47,7.22,1.35c3.67-1.49,7.42-2.77,12.13-3.45c-2.9,3.97-5.81,7.94-9.14,12.5c4.1-1.04,8.02-2.04,13.4-3.41
			c-3.65,3.92-6.05,7.2-9.12,9.61c-3.21,2.53-4.17,5.29-4.28,9.29c-1.63,55.09-60.07,89.29-108.92,63.85
			c-1.4-0.73-2.7-1.67-5.13-3.18C16.06,106.17,27.91,103.08,39.36,94.58z"/>
	</g>
</g>
</svg>
